<svg width="214" height="213" viewBox="0 0 214 213" fill="none" xmlns="http://www.w3.org/2000/svg">
<path d="M176.069 0H36.8702C16.5525 0 0 16.5503 0 36.8702L0.0021728 176.13C0.0021728 196.448 16.5525 213 36.8724 213H176.132C196.45 213 213.002 196.45 213.002 176.13V36.8702C212.939 16.5503 196.389 0 176.069 0H176.069ZM203.633 176.066C203.633 191.276 191.281 203.628 176.071 203.628H36.8724C21.6627 203.628 9.3103 191.276 9.3103 176.066V36.873C9.3103 21.6632 21.6627 9.31086 36.8724 9.31086L176.132 9.30869C191.342 9.30869 203.69 21.6611 203.69 36.8708V176.069L203.633 176.066Z" fill="#555555"/>
<path d="M150.513 101.778H111.092L111.094 62.3572C111.094 59.7997 109.028 57.6704 106.408 57.6704C103.855 57.6704 101.725 59.7433 101.725 62.3572V101.778H62.2996C59.7466 101.778 57.6172 103.851 57.6172 106.465C57.6172 109.022 59.6835 111.152 62.2996 111.152H101.725V150.573C101.725 153.13 103.791 155.26 106.408 155.26C108.965 155.26 111.094 153.187 111.094 150.573V111.152H150.515C153.073 111.152 155.202 109.079 155.202 106.465C155.202 103.908 153.073 101.778 150.513 101.778V101.778Z" fill="#A1A1A1"/>
</svg>
