<svg width="23" height="24" viewBox="0 0 23 24" fill="none" xmlns="http://www.w3.org/2000/svg">
<path d="M16.8061 11.1308H12.2205L12.2207 6.54519C12.2207 6.2477 11.9804 6 11.6755 6C11.3786 6 11.1309 6.24113 11.1309 6.54519V11.1308H6.54468C6.2477 11.1308 6 11.372 6 11.676C6 11.9735 6.24036 12.2212 6.54468 12.2212H11.1309V16.8069C11.1309 17.1044 11.3712 17.3521 11.6755 17.3521C11.973 17.3521 12.2207 17.1109 12.2207 16.8069V12.2212H16.8064C17.1039 12.2212 17.3516 11.9801 17.3516 11.676C17.3516 11.3785 17.1039 11.1308 16.8061 11.1308V11.1308Z" fill="#A1A1A1"/>
<rect x="0.7" y="0.7" width="21.6" height="22.6" rx="3.3" stroke="#555555" stroke-width="1.4"/>
</svg>
