<svg width="171" height="162" viewBox="0 0 171 162" fill="none" xmlns="http://www.w3.org/2000/svg">
<path fill-rule="evenodd" clip-rule="evenodd" d="M28.4972 123.096H26.0729C24.0635 123.096 22.4346 124.725 22.4346 126.734L22.4336 157.456C22.4335 160.377 25.7022 162.107 28.1177 160.464L52.7525 143.713L73.2968 129.743C76.159 127.796 74.925 123.406 71.6073 123.111L63.5158 129.16H28.4972V123.096ZM28.4976 152.873L28.4983 129.16H63.3705L49.3428 138.698L28.4976 152.873Z" fill="#555555"/>
<path fill-rule="evenodd" clip-rule="evenodd" d="M15.1596 6.06383H155.84C160.864 6.06383 164.936 10.1361 164.936 15.1596V114C164.936 119.023 160.864 123.096 155.84 123.096H72.0262L63.3002 129.16H155.84C164.213 129.16 171 122.372 171 114V15.1596C171 6.78717 164.213 0 155.84 0H15.1596C6.78717 0 0 6.78717 0 15.1596V114C0 122.372 6.78717 129.16 15.1596 129.16H28.5V123.096H15.1596C10.1361 123.096 6.06383 119.023 6.06383 114V15.1596C6.06383 10.1361 10.1361 6.06383 15.1596 6.06383Z" fill="#555555"/>
</svg>
