<svg width="19" height="19" viewBox="0 0 19 19" fill="none" xmlns="http://www.w3.org/2000/svg">
<path d="M16.625 0H2.375C1.06504 0 0 1.06504 0 2.375V13.0625C0 14.3725 1.06504 15.4375 2.375 15.4375H5.9375V18.5547C5.9375 18.8182 6.15273 19 6.38281 19C6.47188 19 6.56465 18.974 6.64629 18.9109L11.2812 15.4375H16.625C17.935 15.4375 19 14.3725 19 13.0625V2.375C19 1.06504 17.935 0 16.625 0ZM17.2188 13.0625C17.2188 13.3891 16.9516 13.6562 16.625 13.6562H10.6875L10.2125 14.0125L7.71875 15.8828V13.6562H2.375C2.04844 13.6562 1.78125 13.3891 1.78125 13.0625V2.375C1.78125 2.04844 2.04844 1.78125 2.375 1.78125H16.625C16.9516 1.78125 17.2188 2.04844 17.2188 2.375V13.0625Z" fill="#555555"/>
</svg>
