<svg width="216" height="213" viewBox="0 0 216 213" fill="none" xmlns="http://www.w3.org/2000/svg">
<path d="M76.6337 103.296C74.6372 103.296 73.3047 104.626 73.3047 106.625C73.3047 108.621 74.6349 109.954 76.6337 109.954H189.789V133.25L215.416 105.627L189.791 80V103.296L76.6337 103.296Z" fill="#A1A1A1"/>
<path fill-rule="evenodd" clip-rule="evenodd" d="M25.3047 10H119.305C127.589 10 134.305 16.7157 134.305 25V50H144.305V25C144.305 11.1929 133.112 0 119.305 0H25.3047C11.4976 0 0.304688 11.1929 0.304688 25V188C0.304688 201.807 11.4976 213 25.3047 213H119.305C133.112 213 144.305 201.807 144.305 188V155H134.305V188C134.305 196.284 127.589 203 119.305 203H25.3047C17.0204 203 10.3047 196.284 10.3047 188V25C10.3047 16.7157 17.0204 10 25.3047 10Z" fill="#555555"/>
<circle cx="139.305" cy="155" r="5" fill="#555555"/>
<circle cx="139.305" cy="50" r="5" fill="#555555"/>
</svg>
