<svg width="177" height="215" viewBox="0 0 177 215" fill="none" xmlns="http://www.w3.org/2000/svg">
<path fill-rule="evenodd" clip-rule="evenodd" d="M66.5328 101C73.1135 104.022 80.4359 105.707 88.1522 105.707C95.8685 105.707 103.191 104.022 109.772 101H66.5328ZM165.969 214.601C171.68 214.601 176.303 209.924 176.303 204.231H176.301C176.301 155.546 136.835 116.077 88.1503 116.077C39.4653 116.077 0 155.546 0 204.231C0 209.942 4.65136 214.601 10.3337 214.601H165.969ZM10.3717 204.231C10.3717 161.271 45.196 126.451 88.1522 126.451C131.108 126.451 165.934 161.271 165.97 204.231C165.97 204.231 10.3717 204.217 10.3717 204.231Z" fill="#555555"/>
<circle cx="87.5" cy="53.5" r="49.5" stroke="#A2A2A2" stroke-width="8"/>
</svg>
